<mxfile host="app.diagrams.net" modified="2024-04-02T15:13:12.831Z" agent="Mozilla/5.0 (Windows NT 10.0; Win64; x64) AppleWebKit/537.36 (KHTML, like Gecko) Chrome/123.0.0.0 Safari/537.36" etag="0pWtvG4t2AR6xyj1g6g4" version="24.2.1" type="github">
  <diagram name="PÃ¡gina-1" id="fvp-vQnIGGh9xeoDT4wr">
    <mxGraphModel dx="1434" dy="772" grid="1" gridSize="10" guides="1" tooltips="1" connect="1" arrows="1" fold="1" page="1" pageScale="1" pageWidth="827" pageHeight="1169" math="0" shadow="0">
      <root>
        <mxCell id="0" />
        <mxCell id="1" parent="0" />
        <mxCell id="DRrjUMENBPjv4pgYB6PE-1" value="&lt;p style=&quot;margin:0cm;line-height:normal;mso-layout-grid-align:&lt;br/&gt;none;text-autospace:none&quot; class=&quot;MsoNormal&quot;&gt;&lt;font face=&quot;Courier New&quot;&gt;&lt;span style=&quot;font-size: 13.3333px;&quot;&gt;{&lt;/span&gt;&lt;/font&gt;&lt;/p&gt;&lt;p style=&quot;margin:0cm;line-height:normal;mso-layout-grid-align:&lt;br/&gt;none;text-autospace:none&quot; class=&quot;MsoNormal&quot;&gt;&lt;font face=&quot;Courier New&quot;&gt;&lt;span style=&quot;font-size: 13.3333px; white-space: normal;&quot;&gt;&lt;span style=&quot;white-space:pre&quot;&gt;&#x9;&lt;/span&gt;&quot;priorPrice&quot;: 0,&lt;/span&gt;&lt;/font&gt;&lt;/p&gt;&lt;p style=&quot;margin:0cm;line-height:normal;mso-layout-grid-align:&lt;br/&gt;none;text-autospace:none&quot; class=&quot;MsoNormal&quot;&gt;&lt;font face=&quot;Courier New&quot;&gt;&lt;span style=&quot;font-size: 13.3333px; white-space: normal;&quot;&gt;&lt;span style=&quot;white-space:pre&quot;&gt;&#x9;&lt;/span&gt;&quot;actualPrice&quot;: 1968.54,&lt;/span&gt;&lt;/font&gt;&lt;/p&gt;&lt;p style=&quot;margin:0cm;line-height:normal;mso-layout-grid-align:&lt;br/&gt;none;text-autospace:none&quot; class=&quot;MsoNormal&quot;&gt;&lt;font face=&quot;Courier New&quot;&gt;&lt;span style=&quot;font-size: 13.3333px; white-space: normal;&quot;&gt;&lt;span style=&quot;white-space:pre&quot;&gt;&#x9;&lt;/span&gt;&quot;digitalCanon&quot;: 5.33&lt;/span&gt;&lt;/font&gt;&lt;/p&gt;&lt;p style=&quot;margin:0cm;line-height:normal;mso-layout-grid-align:&lt;br/&gt;none;text-autospace:none&quot; class=&quot;MsoNormal&quot;&gt;&lt;font face=&quot;Courier New&quot;&gt;&lt;span style=&quot;font-size: 13.3333px;&quot;&gt;}&lt;/span&gt;&lt;/font&gt;&lt;/p&gt;" style="text;html=1;align=left;verticalAlign=middle;whiteSpace=wrap;rounded=0;fillColor=#f5f5f5;fontColor=#333333;strokeColor=#666666;" vertex="1" parent="1">
          <mxGeometry x="20" y="80" width="320" height="100" as="geometry" />
        </mxCell>
        <mxCell id="DRrjUMENBPjv4pgYB6PE-4" value="&lt;span style=&quot;font-size:12.0pt;mso-bidi-font-size:11.0pt;&lt;br/&gt;line-height:150%;font-family:Muli;mso-ascii-theme-font:minor-latin;mso-fareast-font-family:&lt;br/&gt;Muli;mso-fareast-theme-font:minor-latin;mso-hansi-theme-font:minor-latin;&lt;br/&gt;mso-bidi-font-family:&amp;quot;Times New Roman&amp;quot;;mso-bidi-theme-font:minor-bidi;&lt;br/&gt;color:#323030;mso-themecolor:accent5;mso-themeshade:191;mso-ansi-language:ES;&lt;br/&gt;mso-fareast-language:EN-US;mso-bidi-language:AR-SA&quot;&gt;&lt;b&gt;/api/v1/Price/GetPrice&lt;/b&gt;&amp;nbsp;&lt;/span&gt;" style="text;html=1;align=center;verticalAlign=middle;whiteSpace=wrap;rounded=0;" vertex="1" parent="1">
          <mxGeometry x="70" y="40" width="60" height="30" as="geometry" />
        </mxCell>
      </root>
    </mxGraphModel>
  </diagram>
</mxfile>
